<?xml version="1.0" standalone="no"?>
<!DOCTYPE svg PUBLIC "-//W3C//DTD SVG 20010904//EN"
 "http://www.w3.org/TR/2001/REC-SVG-20010904/DTD/svg10.dtd">
<svg version="1.0" xmlns="http://www.w3.org/2000/svg"
 width="864.000000pt" height="864.000000pt" viewBox="0 0 864.000000 864.000000"
 preserveAspectRatio="xMidYMid meet">

<g transform="translate(0.000000,864.000000) scale(0.100000,-0.100000)"
fill="#000000" stroke="none">
<path d="M0 4320 l0 -4320 4318 0 4317 0 -3 3242 c-1 1784 -2 3728 -2 4321 l0
1077 -900 0 -900 0 -1 -172 c-1 -95 -2 -181 -2 -190 0 -10 -3 -16 -6 -14 -7 5
-14 120 -15 273 l-1 102 -458 1 -458 0 -13 -32 c-9 -21 -11 -40 -5 -55 6 -16
5 -22 -4 -20 -7 1 -11 -4 -10 -10 2 -7 -5 -13 -15 -14 -11 0 -13 -2 -4 -6 10
-4 8 -9 -7 -20 -12 -8 -19 -19 -16 -24 4 -5 2 -9 -3 -9 -6 0 -13 7 -16 16 -3
8 -11 12 -17 8 -8 -4 -7 -9 2 -15 10 -7 9 -8 -6 -6 -11 1 -26 6 -32 10 -12 8
-17 2 -15 -14 1 -4 -8 -5 -18 -2 -12 3 -20 0 -20 -7 0 -7 -7 -10 -15 -6 -8 3
-14 2 -14 -2 4 -25 -3 -34 -22 -29 -17 5 -20 2 -16 -13 8 -31 -17 -44 -50 -26
-15 8 -24 15 -19 16 5 0 3 7 -4 15 -7 8 -9 15 -5 15 4 0 3 6 -3 13 -7 7 -11
29 -10 48 0 19 0 64 0 102 l-2 68 -273 -1 -273 -1 -1 -45 c-1 -24 2 -42 7 -39
4 3 3 -6 -3 -19 -7 -13 -14 -23 -17 -21 -3 2 -6 -7 -6 -20 0 -13 3 -22 7 -19
9 5 6 -17 -4 -33 -4 -6 -3 -14 1 -17 11 -7 9 -52 -2 -63 -5 -5 -6 -2 -1 6 6
10 4 12 -4 7 -7 -5 -10 -11 -7 -14 3 -3 1 -11 -5 -18 -7 -8 -6 -14 2 -20 7 -4
9 -3 6 3 -3 5 0 10 8 10 12 0 12 -4 -2 -19 -17 -19 -28 -52 -14 -44 13 9 6
-83 -8 -96 -9 -8 -12 -9 -7 -1 3 6 2 14 -3 17 -5 4 -8 -2 -6 -11 2 -10 4 -18
5 -18 1 0 3 -12 4 -27 2 -15 -2 -26 -8 -25 -6 1 -10 -3 -9 -9 1 -6 -10 -10
-25 -9 -15 1 -32 -2 -39 -7 -7 -5 -14 -5 -18 2 -4 7 -11 7 -18 2 -9 -7 -188
-10 -206 -3 -2 0 4 10 14 21 17 19 14 25 -10 20 -5 -1 -2 7 8 18 9 10 15 21
12 24 -3 2 2 5 10 5 8 0 11 -5 7 -11 -11 -18 -10 -55 2 -65 8 -7 11 14 11 74
0 46 -3 81 -6 79 -4 -2 -13 4 -20 13 -8 9 -9 14 -3 10 6 -3 11 0 11 8 0 7 -8
12 -18 10 -17 -4 -20 18 -4 32 4 4 5 3 2 -3 -3 -6 0 -11 8 -11 11 0 12 4 4 13
-6 7 -18 11 -28 9 -10 -2 -18 3 -18 10 0 8 3 12 7 10 4 -2 7 2 7 10 0 7 -8 12
-17 10 -11 -2 -16 4 -16 20 0 13 4 21 10 18 5 -4 7 1 3 11 -5 13 -3 17 6 13 8
-3 14 1 14 8 0 7 -8 12 -18 10 -13 -3 -17 2 -14 16 2 10 -1 19 -7 19 -7 0 -3
6 7 14 11 8 24 12 30 9 5 -4 -1 6 -14 20 -13 15 -27 24 -31 22 -4 -2 -7 2 -7
10 0 8 3 12 7 10 4 -2 7 2 7 10 0 8 -4 12 -9 9 -4 -3 -8 2 -8 11 0 9 4 14 8
11 5 -3 9 0 9 7 0 17 -198 21 -209 4 -6 -9 -8 -9 -8 0 0 15 -69 15 -87 0 -7
-5 -13 -6 -13 -1 0 5 -11 9 -25 9 -19 0 -25 -5 -25 -22 0 -16 -4 -21 -15 -16
-10 3 -25 -6 -40 -23 -21 -24 -27 -26 -37 -15 -11 11 -10 12 1 6 11 -6 13 -4
7 11 -8 18 -14 41 -15 57 -1 4 -23 7 -51 7 l-50 0 -1 -52 c-3 -155 -9 -385
-11 -396 -1 -7 -7 -11 -14 -8 -19 7 -112 15 -254 21 -69 3 -126 10 -128 15 -2
6 -10 6 -22 0 -20 -10 -47 11 -36 29 3 5 -3 7 -14 4 -12 -3 -20 0 -20 6 0 7 3
10 8 8 4 -3 13 1 19 9 7 7 9 15 4 18 -5 4 -7 15 -4 26 3 11 9 17 14 14 5 -3 9
2 9 11 0 9 5 13 10 10 16 -10 11 1 -7 16 -9 8 -14 9 -10 3 3 -6 -3 -18 -14
-27 -24 -21 -46 -23 -26 -2 9 8 13 24 10 35 -5 20 -7 20 -24 4 -10 -9 -16 -20
-14 -24 3 -4 -5 -7 -18 -6 -12 0 -21 -4 -20 -9 1 -6 -10 -11 -25 -12 -23 -1
-24 -1 -7 7 16 6 17 9 5 14 -22 8 -55 1 -55 -12 0 -7 -4 -12 -10 -12 -5 0 -10
6 -10 13 0 7 -12 11 -33 9 -19 -1 -31 2 -27 7 3 5 1 12 -5 16 -6 4 -8 10 -5
15 3 4 -8 6 -24 4 -31 -5 -50 9 -30 22 8 4 9 3 5 -4 -4 -7 -1 -12 8 -12 9 0
15 3 15 8 -1 4 0 10 1 15 6 17 8 29 9 60 1 24 4 28 11 17 6 -9 10 -10 10 -3 0
6 -5 15 -10 18 -8 5 -8 11 -1 19 7 9 7 16 -1 24 -9 9 -9 15 1 25 10 10 11 8 5
-8 -4 -11 -4 -17 1 -13 4 4 9 20 10 35 1 16 7 27 14 25 7 -1 10 2 6 8 -4 7
-256 10 -780 10 -624 0 -775 -3 -784 -14 -8 -9 -7 -13 4 -13 8 0 11 5 8 11 -3
6 -2 7 2 3 18 -16 13 -36 -7 -32 -15 3 -17 1 -9 -9 9 -10 7 -17 -6 -27 -16
-12 -17 -12 -6 2 10 13 10 16 -1 16 -14 0 -16 -14 -3 -33 4 -8 -3 -11 -23 -9
-17 1 -28 -2 -27 -9 1 -6 -3 -10 -8 -9 -6 1 -11 -9 -11 -22 0 -13 3 -22 6 -20
4 2 7 -2 7 -10 0 -7 -8 -12 -18 -10 -11 2 -16 -2 -14 -13 2 -9 4 -17 5 -17 1
0 3 -8 5 -17 2 -12 -3 -15 -17 -13 -16 3 -18 2 -8 -10 10 -12 8 -13 -10 -10
-17 3 -19 1 -11 -9 9 -11 5 -13 -19 -11 -24 2 -28 0 -19 -11 8 -10 6 -12 -11
-9 -19 4 -20 2 -8 -12 7 -9 8 -14 2 -10 -7 4 -17 1 -23 -7 -6 -7 -25 -12 -41
-11 -17 1 -28 -2 -27 -8 1 -6 -3 -11 -10 -12 -7 0 -18 -6 -25 -14 -11 -12 -10
-13 2 -6 13 8 13 7 1 -9 -10 -12 -17 -14 -25 -6 -13 13 -15 33 -23 233 l-6
167 -42 0 -42 0 -5 -311 c-3 -186 -10 -315 -16 -321 -6 -6 -9 -3 -9 9 1 18
-15 201 -19 216 -1 4 -2 14 -3 23 0 8 -5 13 -11 9 -5 -3 -7 -11 -4 -18 3 -8
-6 -12 -26 -12 -16 -1 -30 4 -30 9 0 5 -6 2 -13 -9 -10 -12 -16 -14 -21 -7 -4
7 -12 12 -17 12 -6 0 -7 -5 -3 -12 5 -7 3 -8 -7 -2 -20 12 -40 14 -33 3 3 -5
11 -6 17 -3 7 4 8 3 4 -2 -11 -12 -40 -11 -49 1 -5 6 -8 4 -8 -5 0 -13 -1 -13
-10 0 -8 13 -10 12 -10 -3 0 -14 -4 -16 -18 -8 -11 6 -24 6 -34 0 -11 -6 -19
-5 -24 2 -4 7 -3 9 3 6 6 -4 14 1 17 10 4 10 4 15 1 11 -8 -7 -50 32 -50 47 0
6 -6 10 -13 10 -7 0 -17 6 -21 14 -5 7 -14 10 -20 7 -7 -4 -11 1 -11 13 0 11
5 23 11 27 8 4 7 9 -2 15 -11 7 -10 9 4 9 25 0 52 26 34 33 -9 4 -9 6 1 6 7 1
10 7 7 14 -4 6 1 3 10 -8 15 -19 16 -19 13 5 -3 22 1 25 27 24 26 0 31 3 33
25 1 21 0 23 -9 11 -8 -12 -10 -12 -7 -1 2 8 14 16 26 17 17 3 20 0 15 -14 -7
-18 -5 -17 17 12 13 18 13 19 0 12 -8 -4 -6 0 4 8 18 15 15 21 -9 16 -5 -1 -7
2 -2 6 4 4 17 9 28 11 27 4 69 33 49 33 -13 0 -13 1 0 10 9 6 17 5 22 -3 5 -8
8 -4 8 10 0 12 6 24 12 26 7 3 -242 6 -554 6 l-568 1 0 -4320z m4560 4206 c0
-8 -4 -17 -8 -20 -4 -2 -8 4 -8 15 0 10 4 19 8 19 4 0 8 -6 8 -14z m25 5 c3
-5 2 -12 -3 -15 -5 -3 -9 1 -9 9 0 17 3 19 12 6z m-2890 -11 c4 -6 1 -9 -7 -8
-7 2 -12 -2 -11 -8 1 -6 -5 -11 -13 -11 -11 0 -11 4 3 19 19 21 20 21 28 8z
m-833 -240 c-3 -11 0 -11 14 1 10 8 15 9 11 2 -4 -7 2 -18 14 -27 25 -17 18
-36 -11 -29 -11 3 -17 9 -14 14 3 5 -6 14 -19 20 -26 12 -33 42 -8 36 9 -2 15
-9 13 -17z m2252 -16 c3 -8 10 -13 15 -9 5 3 13 0 17 -6 4 -7 3 -9 -3 -6 -6 4
-13 0 -17 -8 -7 -20 -49 -13 -52 9 -2 14 3 17 19 12 21 -5 21 -5 3 9 -16 12
-17 15 -4 15 9 0 19 -7 22 -16z m-59 -24 c3 -5 -1 -10 -10 -10 -9 0 -13 5 -10
10 3 6 8 10 10 10 2 0 7 -4 10 -10z m1599 2 c3 -5 -1 -9 -9 -9 -8 0 -12 4 -9
9 3 4 7 8 9 8 2 0 6 -4 9 -8z m-4140 -414 c-3 -5 -40 -8 -82 -7 -42 0 -69 4
-59 7 24 10 147 9 141 0z m2110 -153 c4 -22 9 -293 13 -602 5 -498 4 -563 -9
-563 -18 0 -27 55 -34 205 -4 75 -9 104 -22 115 -14 13 -15 13 -6 0 13 -19 17
-83 5 -76 -5 3 -14 -1 -21 -9 -7 -8 -17 -12 -23 -8 -5 3 -7 1 -4 -4 4 -6 -1
-17 -11 -25 -19 -16 -48 -17 -45 -2 1 6 -4 11 -12 11 -8 0 -13 -5 -12 -11 1
-6 -12 -11 -30 -10 -17 0 -31 -4 -30 -9 1 -5 -6 -11 -15 -12 -10 -2 -18 3 -18
11 0 21 4 29 13 26 5 -1 6 2 2 8 -4 7 -12 7 -18 2 -18 -13 -42 -8 -39 8 3 11
0 11 -12 1 -9 -7 -14 -17 -13 -21 1 -4 -2 -8 -8 -9 -5 -1 -10 2 -10 7 0 14
-17 32 -25 27 -5 -3 -12 0 -15 5 -5 8 -14 5 -28 -7 -11 -10 -18 -13 -15 -8 3
6 -3 19 -14 30 -19 20 -19 20 -13 0 5 -16 5 -17 -3 -5 -14 19 -6 30 18 25 12
-2 18 0 15 5 -3 5 -1 11 5 15 6 4 8 11 4 16 -3 5 -10 6 -16 3 -12 -8 -28 14
-27 36 0 10 3 8 9 -5 7 -17 9 -16 10 10 2 17 2 33 2 36 -1 3 5 6 13 6 8 0 11
-5 7 -11 -3 -6 -8 -22 -9 -36 l-2 -25 11 25 c17 38 18 54 5 62 -8 5 -9 12 -2
23 10 17 26 21 24 8 -1 -5 -5 -7 -10 -5 -12 3 -12 -5 0 -13 13 -7 41 23 40 43
0 14 -2 13 -8 -2 -7 -19 -8 -19 -13 2 -3 12 -3 21 1 20 18 -2 22 3 12 15 -16
20 50 17 67 -3 11 -12 11 -11 1 10 -18 34 -19 50 -6 47 7 -1 11 3 10 10 -2 7
6 10 17 8 15 -3 20 2 21 18 1 18 2 18 6 4 6 -21 -15 -49 -30 -40 -6 4 -7 1 -2
-7 5 -8 4 -11 -3 -7 -6 5 -8 -1 -4 -15 5 -19 7 -20 10 -5 2 9 8 14 14 11 7 -5
8 -2 3 6 -6 10 -4 12 8 7 12 -4 14 -2 10 10 -4 10 -2 14 4 10 6 -4 8 3 5 18
-2 15 0 25 7 25 6 0 10 3 9 8 0 4 2 15 7 26 7 17 9 17 21 -5 12 -21 19 -16 16
12 -1 3 5 6 13 6 8 0 12 -4 9 -9 -4 -5 2 -15 12 -22 11 -9 14 -17 8 -27 -8
-13 -14 -59 -7 -59 1 0 7 10 14 21 8 15 8 19 0 15 -15 -10 -13 5 4 28 13 17
13 22 0 37 -14 15 -14 16 7 15 15 -1 22 4 20 14 -3 11 1 11 16 -3 10 -9 21
-14 25 -11 7 7 3 -15 -8 -40 -5 -11 -3 -21 5 -26 7 -4 10 -12 6 -18 -3 -5 1
-13 10 -16 15 -6 15 -8 0 -25 -13 -14 -14 -24 -7 -44 5 -14 7 -28 3 -32 -3 -3
2 -3 13 1 13 5 15 9 6 12 -8 3 -9 7 -3 11 6 4 11 142 14 356 6 361 14 454 32
340z m2685 -331 c0 -92 -3 -163 -7 -160 -7 8 -12 306 -5 319 2 4 6 7 7 7 2 0
4 -75 5 -166z m-1066 113 c-3 -7 4 -3 16 8 27 23 33 23 42 -2 7 -17 8 -17 8 1
1 15 4 16 15 7 15 -13 16 -27 1 -51 -8 -13 -7 -13 8 -1 9 7 14 17 11 22 -3 5
2 9 11 9 9 0 13 5 10 10 -4 6 -12 7 -18 4 -7 -4 -9 -3 -5 1 5 5 28 9 53 10 46
1 50 -3 46 -45 -2 -12 0 -12 7 -1 8 10 14 11 32 1 18 -9 20 -14 9 -21 -8 -5
-16 -3 -21 4 -5 8 -8 6 -8 -5 0 -10 5 -18 10 -18 6 0 10 -12 9 -27 l-1 -28 -8
25 c-4 14 -8 21 -9 16 -1 -5 -9 -2 -18 5 -16 13 -17 12 -5 -3 9 -11 10 -18 2
-23 -6 -3 -7 -11 -4 -17 4 -7 2 -8 -5 -4 -6 4 -9 11 -7 15 3 4 -2 8 -10 8 -10
0 -14 -7 -11 -19 3 -10 1 -20 -4 -23 -4 -3 -6 -13 -3 -23 5 -14 4 -14 -4 -2
-6 8 -8 18 -5 24 3 5 1 6 -5 2 -7 -4 -12 -15 -13 -24 0 -11 -3 -12 -6 -4 -5
13 -24 17 -22 5 1 -5 1 -17 0 -28 -2 -18 -3 -18 -12 4 -9 23 -10 23 -29 6 -13
-12 -17 -22 -11 -29 6 -7 6 -17 -1 -26 -9 -13 -9 -13 -5 0 2 8 -2 22 -11 30
-14 12 -15 11 -10 -8 4 -12 2 -25 -3 -28 -5 -3 -10 3 -10 13 -1 10 -5 5 -9
-12 -5 -18 -8 -22 -9 -11 -1 18 -2 18 -19 3 -10 -10 -23 -14 -27 -10 -5 5 -3
0 4 -10 11 -14 16 -15 22 -5 7 11 9 11 9 0 0 -7 4 -10 10 -7 6 4 7 -1 3 -11
-4 -11 -8 -13 -11 -6 -2 7 -8 9 -13 6 -6 -4 -6 -11 1 -19 7 -9 6 -16 -7 -26
-16 -13 -17 -12 -4 4 10 13 10 17 1 17 -7 0 -10 7 -6 17 4 10 4 14 0 10 -4 -4
-14 -1 -23 6 -14 11 -14 10 -2 -6 10 -13 11 -21 4 -25 -6 -4 -12 -16 -14 -26
-2 -11 -11 -21 -19 -24 -8 -3 -12 -1 -8 3 12 13 -12 34 -29 28 -13 -5 -15 -2
-10 12 6 14 5 16 -7 6 -11 -10 -14 4 -15 92 -1 62 3 115 10 133 7 16 13 32 13
36 1 3 5 10 10 15 5 5 6 2 1 -7 -5 -10 -5 -12 3 -5 5 6 12 19 14 29 4 22 47
29 87 15 18 -7 22 -6 18 5 -7 16 2 28 15 20 4 -3 5 -11 1 -17z m268 -100 c-10
-9 -11 -8 -5 6 3 10 9 15 12 12 3 -3 0 -11 -7 -18z m-194 -104 c1 -22 -1 -24
-8 -10 -6 9 -7 22 -4 27 9 14 10 13 12 -17z m-1906 -70 c7 -10 9 -15 4 -10 -4
4 -16 0 -25 -8 -14 -13 -17 -13 -17 -1 0 8 5 14 11 13 6 -1 10 4 9 11 -4 17 2
15 18 -5z m-994 -80 c0 -9 -4 -10 -14 -2 -7 6 -13 12 -13 14 0 1 6 2 13 2 8 0
14 -6 14 -14z m2704 -11 c-4 -9 -6 -24 -4 -32 3 -11 2 -12 -5 -2 -5 7 -7 23
-6 35 3 30 3 29 14 22 6 -4 7 -13 1 -23z m-2740 -29 c-12 -20 -14 -14 -5 12 4
9 9 14 11 11 3 -2 0 -13 -6 -23z m39 -9 c0 -8 -19 -13 -24 -6 -3 5 1 9 9 9 8
0 15 -2 15 -3z m1156 -316 c4 -7 3 -8 -4 -4 -12 7 -15 -4 -15 -46 0 -10 -4
-15 -8 -12 -5 3 -9 -2 -9 -11 0 -9 4 -14 9 -10 5 3 12 1 15 -4 4 -5 2 -12 -3
-15 -5 -4 -13 -2 -16 4 -5 8 -11 7 -21 -1 -9 -7 -14 -8 -12 -3 2 5 -1 9 -7 9
-5 0 -9 -4 -7 -8 1 -5 -2 -6 -7 -3 -5 4 -12 -2 -15 -11 -3 -11 -4 -8 -3 7 2
28 -23 35 -35 10 -6 -11 -7 -10 -5 5 1 11 7 20 14 20 6 0 14 3 18 7 6 5 -19 4
-35 -2 -3 -1 -8 -2 -11 -2 -3 1 -4 -11 -2 -26 3 -15 1 -23 -4 -17 -10 14 -39
12 -36 -1 1 -6 -4 -11 -11 -11 -6 0 -12 11 -12 23 0 12 3 21 7 19 3 -3 14 4
24 14 9 11 25 18 36 16 10 -2 21 1 24 6 4 5 12 6 18 2 23 -15 36 -10 68 23 38
39 36 38 45 22z m-357 -5 c-3 -20 2 -24 16 -13 8 7 16 10 16 6 1 -3 3 -15 4
-26 1 -11 3 -23 4 -27 0 -3 10 2 21 12 11 10 17 23 13 29 -4 6 1 4 12 -4 10
-8 21 -14 24 -12 3 1 7 -8 9 -21 3 -21 -1 -23 -40 -23 -39 1 -43 -1 -42 -22 1
-18 -1 -20 -12 -11 -7 6 -13 14 -12 17 0 4 0 19 -1 33 -1 22 -5 26 -28 24 -16
-1 -27 -7 -25 -14 1 -7 -2 -10 -8 -6 -13 8 6 35 23 32 6 -1 12 4 13 11 2 19 4
22 9 22 3 0 4 -3 4 -7z m78 -108 c0 -6 -6 -12 -12 -12 -6 0 -12 6 -12 12 0 6
6 12 12 12 6 0 12 -6 12 -12z m43 9 c0 -8 -19 -13 -24 -6 -3 5 1 9 9 9 8 0 15
-2 15 -3z m1665 -344 c11 -36 -6 -43 -26 -11 -10 18 -19 36 -19 42 0 17 38 -9
45 -31z m-196 -311 c30 -11 51 -35 51 -58 0 -27 -41 -51 -85 -51 -88 0 -116
73 -41 106 38 16 36 16 75 3z m-439 -104 c21 -11 30 -23 30 -40 0 -57 -107
-88 -150 -43 -27 29 -25 52 6 77 32 25 74 27 114 6z m240 -17 c0 -25 11 -44
43 -78 23 -25 62 -67 86 -95 l43 -50 121 -1 c78 0 133 -6 152 -14 19 -8 76
-14 150 -15 91 -1 131 -6 163 -20 39 -16 43 -20 37 -44 -4 -14 -7 -27 -8 -28
-1 -1 -27 5 -57 13 -30 8 -70 14 -90 14 -45 -1 -115 -32 -130 -60 -6 -11 -36
-37 -67 -57 -66 -42 -95 -70 -148 -141 l-40 -53 -3 44 c-2 28 6 72 21 116 13
40 18 66 11 60 -19 -15 -64 -135 -71 -187 -7 -59 -15 -69 -53 -66 -51 3 -34
-13 38 -37 99 -32 188 -78 238 -122 25 -22 43 -42 40 -44 -3 -3 -26 9 -52 26
-44 31 -135 61 -180 61 -11 0 -47 9 -79 20 -61 21 -109 28 -417 60 -149 16
-260 20 -536 20 l-349 0 -39 26 c-35 24 -73 61 -74 74 0 7 565 5 640 -3 36 -3
112 -9 170 -12 101 -6 516 -61 532 -71 4 -3 8 -1 8 3 0 8 -38 37 -50 38 -3 0
-10 4 -16 8 -7 3 -29 9 -50 13 -22 3 -41 7 -44 9 -3 2 -26 6 -50 10 -25 3 -53
8 -62 11 -9 3 -27 7 -40 9 -12 3 -24 9 -26 15 -2 6 -8 8 -13 4 -5 -3 -9 1 -9
10 0 24 89 95 165 131 130 62 309 97 405 78 40 -8 52 -6 110 23 65 32 65 32
35 40 -50 14 -273 8 -353 -10 -174 -38 -375 -140 -466 -235 -33 -34 -63 -43
-47 -13 32 57 129 135 228 183 35 17 63 33 63 36 0 3 -34 43 -75 90 -41 46
-75 88 -75 93 0 24 24 4 96 -77 42 -49 80 -89 84 -91 5 -2 45 8 90 22 45 14
91 26 103 26 51 1 45 15 -44 110 -49 52 -89 98 -89 103 0 4 -8 7 -18 7 -24 0
-42 19 -35 36 3 9 20 14 44 14 37 0 39 -1 39 -32z m-366 -224 c31 -30 10 -70
-40 -80 -25 -5 -37 -1 -53 15 -26 26 -26 36 -1 61 24 24 72 26 94 4z m1336
-82 c-41 -27 -81 -56 -89 -65 -27 -34 -50 -11 -51 49 0 19 11 25 73 42 39 11
88 21 107 21 34 1 33 0 -40 -47z m924 -43 c47 -23 69 -60 59 -99 -16 -62 -89
-92 -169 -71 -107 29 -137 130 -51 175 38 19 118 17 161 -5z m-5352 -7 c7 -7
8 -12 3 -12 -5 0 4 -13 20 -30 15 -16 32 -27 37 -24 5 3 7 0 6 -8 -2 -7 2 -12
8 -11 6 1 10 -10 8 -25 -1 -15 -3 -27 -4 -27 -1 0 -3 -8 -5 -17 -2 -9 4 -23
13 -30 10 -8 13 -9 9 -1 -4 6 -3 14 2 17 10 7 9 -13 -2 -30 -4 -8 3 -11 22 -9
16 1 28 -3 28 -10 0 -6 -6 -12 -13 -12 -7 0 -10 5 -7 11 3 6 2 7 -2 3 -16 -14
-13 -35 4 -32 9 1 21 0 26 -4 18 -10 35 -9 29 2 -5 8 -3 8 6 0 10 -10 17 -10
27 -1 11 9 13 8 11 -1 -2 -8 5 -15 15 -16 9 -2 15 1 12 5 -3 5 -1 12 5 15 6 4
9 1 8 -7 -2 -9 8 -13 29 -12 17 0 31 -4 30 -10 -1 -5 3 -10 10 -11 6 0 15 -3
19 -7 4 -4 14 -2 22 5 10 7 13 8 9 1 -4 -7 2 -14 13 -17 13 -3 18 -1 13 6 -5
9 -3 9 8 1 8 -6 35 -10 61 -9 26 0 44 -3 42 -7 -3 -5 -10 -5 -16 -2 -6 4 -8 2
-4 -4 3 -6 16 -9 27 -7 16 3 18 1 10 -9 -9 -11 -6 -13 19 -11 16 1 35 -4 41
-11 6 -8 16 -11 22 -7 6 3 7 1 3 -5 -7 -12 -3 -13 53 -16 16 0 33 -5 38 -10 5
-5 2 -6 -6 -1 -10 5 -12 4 -7 -4 4 -6 13 -8 19 -4 15 10 30 11 42 3 6 -4 31
-6 58 -5 30 1 44 -2 38 -8 -6 -6 -56 -12 -113 -13 -57 -2 -182 -8 -278 -12
-182 -8 -525 -6 -541 4 -13 8 -11 369 2 414 9 30 16 37 35 36 13 -1 29 -7 36
-14z m4118 -22 c37 -37 18 -70 -40 -70 -41 0 -60 14 -60 47 0 42 65 58 100 23z
m346 -68 c72 -53 189 -187 229 -263 21 -41 39 -76 41 -78 3 -4 145 83 330 201
86 55 114 67 114 51 0 -5 -60 -44 -132 -88 -73 -44 -172 -106 -220 -138 l-87
-57 16 -38 c8 -20 17 -39 19 -41 5 -5 98 44 191 103 71 43 83 55 83 78 0 30
32 58 65 58 31 0 65 -28 65 -54 0 -34 -23 -48 -73 -45 -38 2 -52 -3 -103 -39
-32 -23 -96 -61 -141 -85 l-83 -42 4 -80 c2 -44 4 -83 5 -88 2 -11 64 23 202
111 68 44 144 90 169 102 25 13 91 52 148 87 86 55 102 68 96 85 -16 52 22 92
85 90 76 -3 107 -64 57 -111 -20 -19 -34 -22 -73 -20 -43 3 -56 -2 -118 -42
-38 -25 -117 -73 -175 -106 -58 -33 -133 -78 -166 -99 -34 -21 -92 -57 -129
-79 -102 -61 -114 -72 -121 -113 -3 -20 -25 -77 -49 -127 -36 -77 -56 -103
-134 -180 -50 -49 -91 -84 -91 -77 0 12 62 93 131 170 16 18 38 51 50 74 21
42 51 130 45 135 -2 2 -53 -30 -114 -72 -61 -41 -114 -75 -118 -75 -3 0 -29
-16 -56 -35 -46 -33 -146 -80 -154 -72 -7 6 50 43 93 60 23 9 77 41 120 72 43
30 107 75 143 99 115 77 113 73 108 192 -2 56 -7 106 -11 110 -9 9 -119 -46
-199 -99 -57 -38 -60 -39 -76 -22 -9 10 -12 15 -6 12 16 -9 59 39 43 48 -8 6
-10 4 -4 -5 6 -9 4 -11 -5 -5 -8 5 -11 4 -6 -3 3 -6 2 -14 -4 -17 -6 -4 -9 -1
-8 7 2 8 -6 13 -19 12 -12 -1 -21 4 -20 10 1 6 -4 10 -11 8 -6 -1 -11 4 -10
10 2 7 -2 12 -7 11 -6 -1 -12 8 -12 19 -1 12 -8 28 -16 35 -12 12 -15 3 -19
-69 -6 -87 -35 -167 -74 -199 -16 -13 -16 -12 -6 7 16 30 0 47 -36 39 -23 -5
-33 -2 -40 11 -8 15 -11 14 -27 -7 -14 -21 -16 -21 -11 -4 33 122 32 184 -4
255 -27 52 -83 108 -135 132 l-40 19 110 -4 c128 -4 170 -20 230 -89 21 -24
33 -34 27 -23 -55 110 -60 134 -47 204 10 52 65 114 93 104 66 -25 194 -167
251 -280 22 -44 47 -55 58 -26 10 26 -63 156 -136 238 -19 22 -62 64 -95 94
-34 30 -62 58 -64 63 -7 17 27 7 64 -20z m-3388 -281 c2 -39 -1 -61 -8 -61 -7
0 -10 23 -9 65 3 80 13 78 17 -4z m1991 4 c51 -8 101 -20 110 -28 12 -11 54
-16 156 -20 125 -4 149 -8 225 -36 47 -17 72 -28 55 -25 -52 11 -118 12 -141
4 -13 -6 -26 -4 -34 3 -10 9 -11 9 -5 -2 6 -10 4 -12 -6 -5 -22 14 -72 12 -91
-4 -10 -8 -18 -12 -18 -7 0 4 -7 2 -15 -5 -8 -7 -15 -9 -15 -6 0 4 -6 4 -12
-1 -7 -4 -22 -9 -32 -10 -11 -2 -25 -8 -33 -14 -7 -6 -13 -8 -13 -4 0 4 -6 3
-13 -3 -12 -11 -204 -71 -312 -99 -80 -20 -161 -12 -228 22 -59 31 -89 54 -82
65 2 4 33 10 67 13 55 5 239 25 393 42 72 8 144 26 151 36 9 15 11 15 -283 -6
-300 -21 -330 -20 -415 13 -39 15 -89 43 -112 64 l-41 36 325 -5 c191 -3 364
-11 419 -18z m621 -125 c0 -5 -7 -7 -15 -4 -8 4 -15 8 -15 10 0 2 7 4 15 4 8
0 15 -4 15 -10z m97 -46 c-3 -3 -12 -4 -19 -1 -8 3 -5 6 6 6 11 1 17 -2 13 -5z
m-333 -13 c3 -4 -3 -16 -14 -26 -20 -18 -26 -22 -102 -64 -23 -12 -56 -34 -72
-48 -16 -13 -61 -40 -100 -60 -101 -51 -188 -57 -275 -18 -33 15 -61 33 -61
39 0 11 25 21 275 102 232 76 335 98 349 75z m526 -46 c0 -2 -10 -9 -22 -15
-22 -11 -22 -10 -4 4 21 17 26 19 26 11z m-255 -34 c-3 -6 -11 -8 -17 -5 -6 4
-5 9 3 15 16 10 23 4 14 -10z m-185 -23 c-4 -18 -11 -41 -15 -50 -10 -24 2
-22 50 7 22 13 54 31 70 41 l30 16 -29 -31 c-17 -17 -26 -31 -22 -31 5 0 3 -7
-4 -15 -7 -9 -13 -31 -12 -50 1 -19 -8 -51 -19 -70 -22 -36 -49 -49 -90 -43
-21 3 -24 8 -22 41 3 43 1 44 -35 17 -40 -29 -145 -53 -195 -45 -46 8 -77 21
-77 34 0 23 327 211 366 211 8 0 9 -10 4 -32z m385 22 c-4 -6 -27 -21 -53 -34
-54 -28 -82 -55 -85 -84 0 -12 -7 -19 -17 -17 -8 1 -24 -5 -34 -14 -16 -13
-18 -13 -11 -1 5 8 10 21 12 29 1 8 6 17 10 20 5 3 25 18 45 34 29 23 125 77
136 77 2 0 0 -5 -3 -10z m765 -35 c0 -8 -8 -15 -18 -15 -10 0 -23 -5 -29 -11
-8 -8 -13 -7 -18 2 -5 8 -4 10 3 5 6 -4 17 2 24 14 15 23 38 27 38 5z m-150
-65 c0 -21 -34 -45 -50 -35 -18 11 -11 35 13 45 33 13 37 12 37 -10z m539
-101 c57 -53 -3 -123 -80 -92 -70 28 -72 93 -4 112 37 9 57 5 84 -20z m-1981
-167 c28 -38 84 -100 126 -138 75 -67 92 -94 60 -94 -22 0 -225 207 -252 258
-23 41 -23 42 -3 42 13 0 37 -24 69 -68z m1882 29 c0 -9 -76 -59 -186 -125
-45 -26 -47 -30 -30 -40 11 -6 49 -33 85 -60 122 -91 173 -99 231 -36 33 36
42 40 85 40 39 0 54 -5 77 -27 62 -59 21 -133 -73 -133 -40 0 -52 5 -78 31
-25 25 -36 29 -60 24 -39 -8 -100 9 -131 37 -37 34 -100 81 -141 106 l-36 22
-41 -29 c-22 -17 -69 -44 -104 -61 -34 -18 -77 -43 -95 -56 -17 -13 -36 -24
-42 -24 -6 0 -35 -16 -65 -35 -30 -19 -60 -35 -66 -35 -5 0 -10 -2 -10 -5 0
-3 37 -53 83 -111 45 -57 102 -130 126 -162 23 -31 60 -75 81 -98 43 -47 65
-83 55 -92 -8 -8 -62 52 -110 125 -19 28 -57 75 -83 105 -27 29 -73 85 -102
123 -58 75 -92 108 -100 96 -3 -4 -13 -12 -22 -17 -16 -9 -9 -22 60 -116 42
-59 97 -136 121 -170 l43 -63 -47 45 c-26 25 -57 59 -69 76 -46 68 -243 329
-284 376 -24 28 -42 52 -40 54 13 13 51 -17 98 -78 30 -39 62 -79 70 -90 14
-17 19 -18 43 -7 l27 12 -34 46 c-18 25 -36 57 -39 71 l-6 25 22 -26 c12 -14
36 -43 53 -65 l31 -39 44 24 c24 13 58 34 74 45 17 12 49 28 72 34 23 7 83 38
133 70 51 31 119 71 151 89 32 18 94 55 136 82 80 52 93 58 93 42z m-1343 -83
c-41 -40 -79 -81 -84 -91 -5 -10 -18 -19 -29 -21 -10 -2 -24 -12 -30 -24 -6
-12 -14 -19 -17 -15 -4 3 -7 -3 -7 -15 0 -29 -17 -58 -65 -111 -22 -24 -33
-40 -25 -36 13 8 13 7 0 -11 -8 -10 -21 -24 -28 -29 -7 -6 -18 -21 -25 -34
-11 -22 -36 -27 -29 -6 2 6 -10 -3 -26 -19 -18 -17 -29 -36 -27 -47 2 -10 -1
-18 -8 -16 -7 1 -11 -4 -9 -11 1 -6 -3 -11 -9 -10 -6 2 -16 -6 -22 -17 -7 -11
-18 -24 -25 -30 -7 -5 -36 -46 -65 -90 -28 -44 -62 -84 -73 -90 -12 -6 -29
-17 -38 -24 -9 -7 -16 -10 -16 -6 0 5 -9 0 -20 -10 -11 -10 -20 -14 -20 -10 0
4 -8 1 -18 -8 -17 -15 -18 -15 -19 4 -3 34 54 145 114 225 32 43 67 89 77 103
34 45 197 210 304 307 88 80 278 213 306 214 4 0 -26 -33 -67 -72z m-947 58
c0 -2 -29 -23 -65 -45 -60 -38 -65 -44 -65 -76 0 -19 4 -35 9 -35 5 0 31 15
57 33 57 39 184 111 184 104 0 -5 -103 -71 -172 -111 -26 -14 -54 -33 -62 -42
-19 -18 -21 -74 -3 -74 6 0 71 38 144 85 147 94 246 147 224 121 -15 -18 -313
-206 -327 -206 -34 -2 -78 -85 -49 -96 7 -3 90 42 184 100 183 113 231 140
237 134 5 -6 -81 -69 -151 -110 -178 -106 -265 -161 -265 -169 0 -5 -16 -15
-35 -23 -19 -8 -67 -36 -106 -61 -91 -59 -166 -98 -179 -93 -10 3 95 76 243
168 37 23 67 44 67 46 0 3 -4 3 -9 0 -5 -4 -8 2 -6 11 5 32 -5 33 -57 7 -44
-22 -58 -25 -119 -20 -37 4 -80 11 -94 16 -14 5 -25 7 -25 4 0 -4 -6 -1 -14 5
-8 7 -17 8 -20 3 -8 -13 -83 -7 -101 8 -22 19 -19 57 8 75 25 16 87 16 87 -1
0 -15 35 -46 43 -37 4 3 7 1 7 -5 0 -7 5 -12 10 -12 6 0 9 3 8 8 -2 4 2 7 7 7
6 0 9 -4 7 -8 -1 -5 2 -6 7 -3 5 4 11 1 13 -5 2 -6 19 -12 38 -15 19 -2 46 -6
59 -8 25 -6 89 23 111 49 16 19 25 155 10 155 -5 0 -12 -5 -15 -10 -4 -6 -25
-23 -48 -38 -44 -28 -111 -37 -136 -18 -11 9 -13 8 -7 -2 14 -23 -77 38 -114
77 -19 20 -44 41 -55 47 -11 7 -17 15 -13 19 4 4 25 -4 45 -19 21 -15 59 -42
85 -60 67 -48 106 -53 171 -21 28 15 61 35 72 45 11 10 47 33 80 50 33 17 64
36 70 41 9 9 25 12 25 5z m1035 -83 c-10 -16 -30 -44 -45 -63 -50 -65 -210
-323 -210 -338 0 -4 -23 -52 -50 -107 -27 -55 -50 -105 -50 -111 0 -21 -39
-52 -60 -47 -14 4 -20 1 -20 -11 0 -11 -4 -14 -12 -10 -10 6 -10 4 0 -8 10
-13 10 -17 -3 -22 -18 -7 -19 13 -4 86 28 130 184 375 356 558 92 97 133 128
98 73z m57 -76 c-48 -51 -90 -180 -117 -357 -17 -115 -18 -187 -1 -209 9 -12
8 -13 -4 -6 -12 7 -13 6 -4 -6 12 -16 12 -29 1 -46 -4 -6 -3 -14 3 -18 6 -4 7
-12 3 -18 -10 -17 -14 -79 -4 -73 4 3 8 -1 8 -9 0 -19 -35 -10 -65 17 -88 81
-85 247 10 483 42 105 102 205 147 242 34 29 50 29 23 0z m-1257 -40 c0 -36
-4 -54 -12 -54 -6 0 -11 5 -10 11 1 6 -3 10 -9 9 -6 -1 -11 4 -11 12 0 8 4 12
8 9 4 -2 10 0 13 5 9 15 -11 22 -21 8 -11 -14 -11 -27 1 -46 6 -10 5 -12 -2
-7 -11 7 -17 -14 -12 -39 1 -5 -7 -3 -17 6 -20 17 -49 19 -46 3 1 -5 -9 -10
-23 -10 -14 0 -24 6 -24 14 0 12 3 12 18 1 15 -12 16 -12 5 2 -7 9 -11 18 -8
21 3 3 -2 11 -12 19 -14 12 -16 12 -8 0 6 -10 4 -12 -5 -6 -9 6 -11 4 -5 -5 6
-10 4 -11 -6 -4 -16 10 -63 14 -53 5 3 -3 11 -6 17 -6 7 -1 11 -6 10 -12 -2
-7 6 -10 17 -8 12 2 20 -2 20 -10 0 -25 -17 -25 -40 0 -13 13 -28 21 -34 17
-19 -11 -35 -11 -33 1 1 7 -3 11 -9 10 -6 -1 -11 4 -11 12 0 8 5 13 11 12 6
-1 10 3 9 9 -1 6 4 11 12 11 8 0 13 -3 12 -6 -1 -3 3 -6 8 -6 6 0 9 3 8 6 -1
3 4 6 12 6 8 0 13 -3 12 -6 -1 -3 3 -7 8 -7 6 -1 9 2 7 8 -1 5 2 7 7 4 5 -4
12 -3 15 2 6 10 66 9 84 -1 7 -5 10 -13 6 -18 -3 -5 -10 -7 -15 -3 -5 3 -7 10
-4 15 11 17 -2 9 -21 -13 -10 -12 -14 -18 -7 -15 7 5 9 0 5 -15 -3 -14 -2 -19
7 -14 6 4 9 11 6 16 -3 5 -1 11 4 14 5 4 12 2 16 -4 4 -6 11 -7 17 -4 7 5 8 2
3 -7 -5 -8 -4 -11 0 -6 5 4 10 24 11 45 2 25 0 31 -5 18 -5 -12 -10 -15 -14
-9 -4 6 0 16 8 23 8 7 15 9 15 5 0 -4 6 -2 13 4 8 6 16 9 19 6 3 -3 11 1 18
10 7 8 13 15 14 15 1 0 1 -24 1 -53z m525 25 c0 -7 -36 -32 -265 -179 -38 -25
-92 -56 -120 -70 -27 -14 -81 -48 -118 -77 -60 -45 -68 -54 -64 -79 2 -17 -1
-26 -7 -24 -6 2 -12 15 -14 28 -2 20 10 36 57 77 33 29 63 52 66 52 9 0 108
59 213 127 80 52 244 153 250 153 1 0 2 -4 2 -8z m906 -80 c11 -9 44 -49 73
-89 46 -64 56 -72 89 -76 32 -3 34 -5 15 -12 -13 -4 -23 -10 -23 -13 0 -8 220
-278 280 -344 32 -35 61 -58 73 -58 26 0 87 -58 87 -82 0 -10 -4 -18 -10 -18
-5 0 -10 6 -10 14 0 20 -28 46 -50 46 -27 0 -32 -28 -10 -50 22 -22 13 -27
-13 -7 -9 6 -19 26 -21 44 -2 24 -27 58 -93 130 -49 54 -123 141 -165 193 -42
52 -100 119 -127 149 -28 29 -51 56 -51 60 0 4 -20 34 -45 65 -25 32 -45 60
-45 62 0 10 27 2 46 -14z m-10 -148 c39 -12 39 -12 8 -13 -25 -1 -40 8 -73 44
-22 24 -41 48 -41 51 0 4 15 -10 33 -31 20 -23 50 -44 73 -51z m-66 -28 c57
-59 69 -66 103 -66 71 0 115 -69 75 -117 -50 -61 -175 -8 -147 62 13 34 11 40
-61 116 -109 116 -85 121 30 5z m824 -118 c44 -4 46 -28 3 -28 -37 0 -33 -3
-139 115 -92 103 -86 116 9 18 74 -78 105 -103 127 -105z m-1414 78 c0 -2 -8
-10 -17 -17 -16 -13 -17 -12 -4 4 13 16 21 21 21 13z m440 -494 c0 -12 -3 -12
-15 -2 -8 7 -15 13 -15 15 0 1 7 2 15 2 8 0 15 -7 15 -15z m875 -73 c582 -5
625 -7 625 -25 0 -11 -9 -13 -40 -8 -22 4 -66 6 -98 6 -192 -2 -827 -13 -929
-15 -121 -3 -162 -15 -146 -41 11 -17 12 -37 2 -30 -5 3 -9 -3 -9 -12 0 -24
-14 -8 -16 19 -1 12 -5 40 -9 61 -4 24 -3 41 4 45 6 4 52 6 103 5 51 -1 282
-3 513 -5z m-1969 -125 c38 -18 42 -32 17 -63 l-18 -21 -41 20 c-56 28 -107
17 -112 -22 -4 -32 13 -43 90 -59 37 -8 62 -21 87 -46 31 -31 33 -37 29 -84
-4 -36 -12 -58 -30 -76 -48 -48 -148 -52 -224 -9 -46 25 -51 42 -24 75 l21 24
23 -22 c28 -26 81 -43 113 -35 28 7 46 38 38 64 -6 18 -52 40 -83 40 -31 0
-99 41 -110 66 -27 58 -2 132 52 154 36 15 136 11 172 -6z m2441 -179 c35
-104 63 -193 63 -197 0 -5 -18 -8 -39 -8 -37 0 -40 2 -53 43 l-15 42 -74 3
-75 3 -15 -48 c-14 -46 -16 -48 -57 -51 -26 -2 -42 1 -42 8 0 6 27 91 61 188
33 97 63 185 66 195 5 15 15 17 61 15 l55 -3 64 -190z m203 -5 l0 -200 -40 0
-40 0 0 200 0 200 40 0 40 0 0 -200z m-1274 143 c-2 -14 9 -21 48 -31 61 -15
99 -49 115 -101 16 -54 13 -100 -8 -148 -11 -23 -16 -45 -13 -49 4 -4 2 -4 -4
-1 -7 4 -17 0 -24 -8 -7 -8 -16 -13 -19 -10 -4 2 -8 -2 -8 -10 0 -8 5 -13 11
-12 6 1 10 -3 9 -9 -1 -6 5 -11 12 -11 11 0 12 3 3 14 -9 11 -8 13 3 11 8 -2
13 2 12 8 -1 6 4 11 11 11 7 0 13 -6 13 -13 0 -7 -5 -12 -11 -11 -5 1 -11 -4
-12 -10 -1 -7 -3 -14 -4 -15 -9 -11 -4 -55 6 -55 7 0 12 3 11 6 -1 3 3 6 8 6
6 0 10 -7 9 -15 -1 -10 7 -16 22 -16 12 0 22 2 22 6 -2 19 5 21 23 4 15 -14
20 -15 17 -4 -2 8 3 14 10 12 6 -1 11 3 10 10 -2 7 12 12 34 13 20 1 35 -2 32
-7 -3 -5 -9 -6 -14 -3 -5 3 -11 1 -14 -4 -3 -5 8 -7 24 -6 27 2 29 1 18 -13
-10 -12 -10 -14 0 -8 7 4 12 1 12 -9 0 -9 -4 -14 -8 -11 -14 9 -7 -83 8 -96
12 -11 12 -11 2 3 -9 12 -9 16 1 16 7 0 13 -11 13 -23 0 -12 -3 -21 -6 -19
-11 7 -4 -103 8 -117 6 -8 10 -18 7 -21 -3 -4 -2 -5 2 -2 3 3 11 0 18 -5 8 -7
12 -5 12 5 0 8 -4 12 -8 9 -4 -2 -10 0 -13 5 -7 11 20 9 31 -2 18 -19 10 -34
-18 -32 -23 2 -27 0 -19 -10 8 -10 8 -15 -1 -21 -7 -4 -9 -3 -6 3 3 5 0 10 -8
10 -9 0 -11 -5 -7 -11 18 -24 33 -125 30 -201 l-3 -80 -35 0 -35 0 -5 95 c-5
87 -7 95 -25 95 -11 -1 -19 -6 -18 -12 2 -7 -6 -10 -17 -8 -17 3 -20 -2 -21
-41 -1 -24 -3 -48 -4 -54 -1 -5 -3 -26 -4 -45 -1 -33 -3 -35 -35 -35 l-34 0
-6 68 c-8 90 -8 89 -23 89 -9 0 -10 -4 -2 -13 8 -10 6 -12 -9 -9 -17 3 -19 -3
-21 -58 -2 -71 -8 -80 -47 -75 -26 3 -29 7 -34 48 -3 30 -9 44 -18 42 -8 -1
-11 2 -8 7 4 5 2 12 -2 15 -5 3 -8 18 -7 33 1 15 -3 34 -9 42 -9 12 -8 13 4 6
12 -7 13 -6 3 7 -7 8 -10 19 -5 24 4 5 -8 -4 -26 -21 -59 -53 -59 -58 -2 -130
44 -55 49 -66 35 -72 -30 -11 -69 11 -105 60 l-35 47 -3 -50 c-3 -48 -4 -50
-31 -50 -16 0 -31 6 -33 13 -3 6 -6 85 -7 175 l-3 162 36 0 35 0 3 -97 3 -98
33 46 c23 32 43 49 63 53 28 5 29 7 30 68 2 127 5 163 13 177 7 11 6 12 -5 6
-11 -7 -12 -6 -3 6 8 11 12 52 5 62 -1 1 -3 35 -4 76 -2 64 -5 75 -23 81 -11
4 -34 24 -52 44 -30 34 -32 42 -32 108 0 70 0 71 43 113 23 23 48 44 55 46 7
2 15 13 17 24 5 26 4 25 9 25 2 0 3 -8 2 -17z m-1014 -60 c30 -26 48 -76 48
-132 0 -98 -42 -151 -119 -151 -26 0 -56 7 -69 16 l-22 15 0 -75 0 -76 -40 0
-40 0 0 210 0 210 40 0 c31 0 40 -4 40 -17 0 -14 2 -15 18 -1 9 9 24 18 32 21
26 11 91 -1 112 -20z m287 16 c45 -16 61 -54 61 -148 0 -60 4 -82 15 -88 8 -5
16 -20 17 -33 3 -22 -1 -25 -31 -28 -24 -3 -40 3 -57 19 -13 12 -24 17 -24 11
0 -6 -14 -19 -31 -28 -65 -33 -139 11 -139 83 0 44 35 80 86 88 60 10 86 23
82 43 -4 23 -62 28 -93 8 -32 -21 -42 -20 -56 5 -13 26 4 48 54 66 42 15 76
16 116 2z m1017 -44 c7 -27 15 -67 19 -89 3 -21 9 -36 11 -33 3 3 16 43 28 89
l23 83 36 3 c33 3 38 0 50 -30 8 -18 20 -57 26 -85 13 -53 31 -72 31 -32 0 12
4 38 10 58 5 20 12 48 15 64 5 24 10 27 45 27 22 0 40 -3 40 -7 1 -21 -65
-290 -73 -300 -5 -7 -24 -13 -42 -13 -18 0 -37 6 -43 13 -5 6 -20 50 -33 96
-13 46 -25 79 -26 74 -2 -6 -14 -48 -27 -94 l-22 -84 -42 -3 c-24 -2 -40 -7
-36 -13 3 -5 2 -8 -3 -7 -4 2 -8 -1 -8 -7 0 -5 3 -9 7 -8 5 2 7 -3 5 -10 -1
-6 4 -11 11 -9 8 1 11 -2 7 -8 -3 -6 -10 -8 -14 -5 -5 2 -16 -4 -26 -15 -17
-19 -19 -19 -38 -3 -11 10 -17 13 -14 7 8 -15 -19 -39 -27 -25 -4 5 -2 12 3
15 10 7 9 25 -3 44 -5 8 -3 12 6 10 7 -2 12 3 11 10 -2 6 3 11 10 10 6 -2 11
2 10 8 -1 6 4 11 12 11 8 0 13 -3 12 -6 -1 -3 3 -6 8 -6 13 0 11 35 -10 125
-37 161 -42 189 -37 195 4 3 22 5 41 3 33 -3 36 -6 47 -53z m-796 23 l0 -22
16 22 c11 16 25 22 55 22 39 0 40 -1 37 -32 -3 -30 -6 -33 -43 -38 -53 -7 -65
-32 -65 -143 l0 -88 -37 3 -37 3 -2 140 c-1 77 0 143 3 148 2 4 20 7 39 7 28
0 34 -4 34 -22z m230 0 l0 -21 23 21 c16 15 36 22 61 22 35 0 38 -2 32 -22 -3
-13 -6 -29 -6 -35 0 -8 -13 -13 -33 -13 -54 0 -66 -22 -69 -130 l-3 -95 -37
-3 -38 -3 0 150 0 151 35 0 c29 0 35 -4 35 -22z m480 -202 c0 -2 -8 -10 -17
-17 -16 -13 -17 -12 -4 4 13 16 21 21 21 13z m-23 -153 c0 -8 -4 -10 -12 -3
-7 6 -15 6 -22 -1 -6 -6 -10 -5 -10 4 0 7 10 13 22 13 12 0 22 -6 22 -13z
m219 -248 c0 -12 -5 -22 -11 -22 -6 0 -11 10 -11 22 0 12 5 22 11 22 6 0 11
-10 11 -22z m4 -41 c0 -8 -19 -13 -24 -6 -3 5 1 9 9 9 8 0 15 -2 15 -3z m-996
-23 c25 -28 5 -63 -32 -59 -30 3 -42 39 -22 64 17 19 34 18 54 -5z m-294 -52
c0 -54 2 -60 18 -54 64 27 68 28 97 14 44 -21 55 -53 55 -156 l0 -93 -35 0
-35 0 0 89 c0 101 -11 121 -58 105 -31 -11 -40 -36 -41 -126 l-1 -68 -30 0
-30 0 0 175 0 175 30 0 30 0 0 -61z m-110 21 c0 -29 -2 -30 -45 -30 l-45 0 0
-140 0 -140 -35 0 -35 0 0 140 0 140 -50 0 c-46 0 -50 2 -50 23 0 13 3 27 7
30 3 4 62 7 130 7 l123 0 0 -30z m1654 -26 c20 -8 20 -23 0 -45 -12 -13 -13
-22 -5 -38 29 -53 -9 -111 -80 -120 -64 -9 -54 -25 19 -31 72 -6 92 -22 92
-77 0 -62 -57 -91 -161 -81 -28 3 -58 13 -69 23 -25 23 -26 60 -1 82 16 13 17
20 9 39 -9 19 -8 28 6 43 17 18 17 22 2 43 -47 67 6 143 96 137 29 -3 42 1 49
14 11 18 19 20 43 11z m-996 -35 c40 -14 52 -50 52 -160 l0 -89 -35 0 -34 0
-3 98 c-3 95 -3 97 -28 100 -49 6 -63 -17 -68 -112 l-5 -86 -28 0 -29 0 0 125
0 125 30 0 c21 0 30 -5 30 -17 0 -14 2 -15 18 -1 32 29 56 33 100 17z m-248
-124 l0 -125 -35 0 -35 0 0 125 0 125 35 0 35 0 0 -125z m1370 -59 c6 -8 10
-25 8 -38 -2 -19 -9 -23 -38 -23 -29 0 -36 4 -38 23 -4 28 14 52 38 52 10 0
23 -7 30 -14z m124 1 c11 -8 17 -23 14 -38 -2 -20 -8 -24 -38 -24 -29 0 -36 4
-38 23 -4 25 13 52 32 52 7 0 20 -6 30 -13z m130 0 c11 -8 17 -23 14 -38 -2
-20 -8 -24 -38 -24 -30 0 -36 4 -38 24 -4 22 18 51 38 51 3 0 14 -6 24 -13z
m-1168 -237 c26 -10 26 -11 9 -30 -17 -19 -75 -23 -92 -7 -9 10 -13 38 -5 33
4 -2 16 0 27 5 27 10 30 10 61 -1z m457 -13 c43 -2 80 -1 82 3 5 9 471 3 545
-7 30 -4 72 -7 93 -7 25 0 34 -3 27 -10 -5 -5 -10 -14 -10 -18 0 -12 134 -10
147 3 7 7 20 2 42 -17 l32 -27 -3 -353 c-3 -340 -4 -354 -23 -368 -15 -11 -23
-12 -34 -3 -20 17 -53 16 -73 -1 -10 -8 -18 -12 -18 -7 0 4 -8 1 -17 -6 -15
-12 -16 -12 -8 1 8 13 6 13 -7 2 -9 -8 -30 -15 -47 -16 -17 -1 -41 -11 -53
-22 -13 -11 -30 -20 -38 -19 -8 1 -24 -6 -34 -14 -16 -14 -18 -14 -11 -1 7 12
6 13 -6 4 -8 -6 -22 -10 -31 -9 -10 2 -16 -2 -15 -8 1 -6 -9 -12 -23 -12 -16
-1 -24 -6 -22 -15 3 -11 0 -11 -12 -1 -10 8 -16 9 -21 1 -3 -6 -11 -7 -17 -4
-7 4 -8 2 -4 -5 6 -9 12 -9 24 1 15 10 15 10 4 -2 -7 -9 -31 -15 -55 -15 -31
-1 -41 -5 -39 -15 2 -8 0 -12 -4 -7 -4 4 -16 -1 -26 -10 -15 -13 -19 -14 -16
-3 2 9 -5 14 -18 15 -11 0 -28 6 -36 12 -12 10 -15 10 -15 -2 0 -8 3 -12 7
-10 4 2 7 -2 7 -9 0 -7 -6 -13 -13 -13 -7 0 -12 5 -11 11 1 6 -4 10 -11 8 -35
-7 21 42 117 100 l106 64 0 49 0 48 -125 74 c-69 41 -150 89 -180 105 -105 58
-315 181 -345 202 -16 12 -32 21 -35 21 -3 0 -19 9 -36 19 -27 16 -30 23 -25
50 12 56 5 150 -12 185 -33 67 -31 69 101 65 64 -2 152 -6 195 -7z m797 -13
c0 -8 -19 -13 -24 -6 -3 5 1 9 9 9 8 0 15 -2 15 -3z m60 2 c0 -9 -40 -13 -46
-5 -3 5 6 9 20 9 14 0 26 -2 26 -4z m-1350 -161 c58 -34 186 -108 285 -165
285 -164 608 -351 633 -366 12 -8 22 -20 22 -27 -1 -6 -67 -50 -148 -96 -81
-46 -220 -127 -310 -179 -90 -52 -174 -94 -188 -94 -23 0 -59 18 -349 187 -77
45 -216 125 -310 180 -363 209 -426 248 -422 258 4 13 4 13 337 205 296 171
296 171 323 164 12 -3 69 -33 127 -67z m-321 18 c22 -18 20 -19 -149 -116
-169 -98 -171 -99 -196 -82 -14 9 -23 19 -20 22 9 9 331 193 337 193 4 0 16
-8 28 -17z m-343 -214 c3 -6 0 -15 -7 -20 -13 -7 -28 5 -29 24 0 11 28 8 36
-4z m444 -459 c146 -84 302 -175 346 -201 121 -73 162 -89 192 -78 14 5 66 34
116 63 252 148 496 286 506 286 16 0 12 -36 -7 -52 -10 -8 -81 -51 -158 -95
-77 -45 -212 -122 -299 -173 -126 -73 -165 -91 -190 -88 -17 2 -164 81 -326
175 -162 94 -396 230 -520 301 -210 122 -225 132 -228 161 l-3 31 153 -89 c84
-48 272 -157 418 -241z m1024 -158 c3 -5 -1 -9 -9 -9 -8 0 -12 4 -9 9 3 4 7 8
9 8 2 0 6 -4 9 -8z"/>
<path d="M3105 8240 c-3 -5 -1 -10 4 -10 6 0 11 5 11 10 0 6 -2 10 -4 10 -3 0
-8 -4 -11 -10z"/>
<path d="M2515 7150 c-3 -6 -11 -7 -17 -4 -7 5 -8 2 -2 -7 5 -8 9 -22 9 -31 0
-17 14 -26 16 -10 0 4 7 14 15 23 13 14 13 18 0 28 -10 8 -16 9 -21 1z m25
-15 c0 -2 -6 -8 -13 -14 -10 -8 -14 -7 -14 2 0 8 6 14 14 14 7 0 13 -1 13 -2z"/>
<path d="M2396 7131 c-3 -5 2 -15 12 -22 15 -12 16 -12 5 2 -7 9 -10 19 -6 22
3 4 4 7 0 7 -3 0 -8 -4 -11 -9z"/>
<path d="M2435 7109 c-4 -6 -5 -12 -2 -15 2 -3 7 2 10 11 7 17 1 20 -8 4z"/>
<path d="M2410 7081 c0 -6 4 -13 10 -16 6 -3 7 1 4 9 -7 18 -14 21 -14 7z"/>
<path d="M2489 7033 c-13 -16 -12 -17 4 -4 9 7 17 15 17 17 0 8 -8 3 -21 -13z"/>
<path d="M2534 7028 l-19 -23 23 19 c21 18 27 26 19 26 -2 0 -12 -10 -23 -22z"/>
<path d="M2254 6991 c2 -9 7 -15 12 -13 5 2 12 -7 16 -20 5 -18 6 -15 5 11 -1
23 -7 35 -18 37 -11 1 -16 -4 -15 -15z"/>
<path d="M2531 6947 c-13 -21 -12 -21 5 -5 10 10 16 20 13 22 -3 3 -11 -5 -18
-17z"/>
<path d="M2579 6943 c-1 -5 -1 -12 0 -17 1 -5 -3 -12 -9 -16 -8 -5 -7 -9 4
-13 12 -5 16 0 16 23 0 27 -8 42 -11 23z"/>
<path d="M2240 6895 c0 -5 5 -17 10 -25 5 -8 10 -10 10 -5 0 6 -5 17 -10 25
-5 8 -10 11 -10 5z"/>
<path d="M2291 6884 c0 -11 3 -14 6 -6 3 7 2 16 -1 19 -3 4 -6 -2 -5 -13z"/>
<path d="M2335 6869 c-4 -6 -5 -12 -2 -15 2 -3 7 2 10 11 7 17 1 20 -8 4z"/>
<path d="M2206 6825 c4 -8 11 -15 16 -15 6 0 5 6 -2 15 -7 8 -14 15 -16 15 -2
0 -1 -7 2 -15z"/>
<path d="M2533 6805 c0 -8 4 -12 9 -9 5 3 6 10 3 15 -9 13 -12 11 -12 -6z"/>
<path d="M4269 7468 c0 -2 -2 -11 -4 -21 -3 -15 -1 -16 11 -6 7 6 11 15 8 20
-5 9 -13 12 -15 7z"/>
<path d="M4383 7458 c-3 -6 -1 -8 5 -4 5 3 13 0 15 -6 4 -10 6 -10 6 0 1 8 6
10 14 6 6 -4 8 -3 4 1 -12 13 -36 15 -44 3z"/>
<path d="M4130 7441 c0 -6 4 -13 10 -16 6 -3 7 1 4 9 -7 18 -14 21 -14 7z"/>
<path d="M4156 7438 c3 -4 12 -8 20 -8 8 0 14 4 14 8 0 4 -9 8 -19 8 -11 0
-17 -4 -15 -8z"/>
<path d="M4136 7143 c-6 -14 -5 -15 5 -6 7 7 10 15 7 18 -3 3 -9 -2 -12 -12z"/>
<path d="M2533 6708 c-4 -7 -8 -17 -8 -23 0 -5 -10 -10 -22 -10 -13 0 -23 -3
-23 -7 0 -5 0 -11 0 -14 0 -4 6 -1 14 5 11 9 16 9 22 0 5 -9 10 -5 17 12 12
28 17 49 12 49 -2 0 -7 -6 -12 -12z"/>
<path d="M2379 6653 c-13 -14 -17 -22 -9 -17 8 5 19 9 24 9 5 0 10 8 12 18 3
22 2 22 -27 -10z"/>
<path d="M2235 6711 c-3 -5 -2 -12 3 -15 5 -3 9 1 9 9 0 17 -3 19 -12 6z"/>
<path d="M2285 6680 c-14 -15 -13 -17 11 -15 16 0 28 7 29 16 3 21 -21 20 -40
-1z m29 2 c3 -5 -1 -9 -9 -9 -8 0 -12 4 -9 9 3 4 7 8 9 8 2 0 6 -4 9 -8z"/>
<path d="M2240 6664 c0 -8 5 -12 10 -9 6 4 8 11 5 16 -9 14 -15 11 -15 -7z"/>
<path d="M3748 5949 c-24 -13 -23 -36 2 -49 44 -24 87 17 47 45 -25 18 -26 18
-49 4z"/>
<path d="M3278 5859 c-25 -14 -22 -48 5 -58 47 -18 99 28 63 55 -23 16 -44 17
-68 3z"/>
<path d="M3172 5618 c-28 -28 2 -57 39 -38 23 13 25 36 3 44 -22 8 -28 8 -42
-6z"/>
<path d="M5352 5498 c-51 -26 -36 -97 29 -132 43 -24 95 -16 133 19 57 53 15
117 -82 122 -31 1 -67 -2 -80 -9z m116 -34 c12 -8 22 -24 22 -34 0 -22 -36
-50 -64 -50 -22 0 -66 37 -66 56 0 17 40 44 65 44 11 0 31 -7 43 -16z"/>
<path d="M5390 5436 c0 -27 26 -41 54 -30 21 8 21 40 0 48 -34 13 -54 7 -54
-18z"/>
<path d="M183 5426 c0 -8 5 -14 11 -13 6 1 10 -3 9 -9 -1 -6 5 -11 13 -11 10
0 9 7 -8 24 -25 27 -25 27 -25 9z"/>
<path d="M4210 5434 c0 -8 9 -14 20 -14 11 0 20 4 20 9 0 5 -9 11 -20 14 -13
3 -20 0 -20 -9z"/>
<path d="M5601 5196 c-12 -14 -5 -46 9 -46 5 0 15 -3 23 -6 8 -3 22 2 31 12
16 15 16 18 0 35 -20 22 -47 25 -63 5z"/>
<path d="M5234 5155 c-8 -20 4 -35 27 -35 24 0 37 29 18 41 -21 13 -39 11 -45
-6z"/>
<path d="M4822 4994 c-12 -8 -22 -22 -22 -30 0 -17 -1 -17 39 -3 20 7 31 17
29 27 -4 22 -20 24 -46 6z"/>
<path d="M4714 4989 c-3 -6 -16 -8 -28 -5 -15 4 -26 -1 -35 -15 -7 -12 -8 -18
-3 -15 6 3 9 0 8 -6 -3 -25 -17 -37 -36 -33 -11 2 -22 -1 -26 -6 -4 -6 -17 -1
-33 13 -24 22 -24 21 2 -9 16 -17 36 -30 45 -28 10 2 17 4 17 5 0 1 17 3 38 4
23 2 43 10 53 22 8 10 12 12 8 4 -7 -13 -5 -13 9 -1 20 16 22 22 5 19 -8 -2
-11 8 -9 30 3 33 -3 41 -15 21z m-100 -87 c3 -5 -1 -9 -9 -9 -8 0 -12 4 -9 9
3 4 7 8 9 8 2 0 6 -4 9 -8z"/>
<path d="M4626 4928 c3 -5 10 -6 15 -3 13 9 11 12 -6 12 -8 0 -12 -4 -9 -9z"/>
<path d="M5129 4648 c-10 -18 -8 -24 11 -40 47 -38 114 -1 76 41 -26 28 -72
28 -87 -1z"/>
<path d="M5272 4274 c-30 -21 -28 -58 4 -83 32 -25 61 -27 92 -5 35 25 28 70
-15 93 -30 15 -54 14 -81 -5z"/>
<path d="M2281 4237 c-13 -17 4 -42 34 -49 16 -4 21 0 23 16 2 39 -34 60 -57
33z"/>
<path d="M2655 4331 c-3 -5 -2 -12 3 -15 5 -3 9 1 9 9 0 17 -3 19 -12 6z"/>
<path d="M2487 4281 c-10 -14 -10 -14 4 -4 10 9 19 9 26 2 7 -7 13 -6 21 4 9
10 6 13 -14 13 -14 0 -30 -7 -37 -15z"/>
<path d="M2655 4291 c-3 -5 -2 -12 3 -15 5 -3 9 1 9 9 0 17 -3 19 -12 6z"/>
<path d="M2396 4272 c-3 -6 1 -15 8 -21 8 -7 17 -8 20 -3 3 6 -1 15 -8 21 -8
7 -17 8 -20 3z"/>
<path d="M4102 3968 c-18 -18 -15 -43 8 -63 16 -15 26 -17 48 -9 33 11 40 39
16 65 -19 21 -54 25 -72 7z"/>
<path d="M5086 3208 c-9 -32 -19 -64 -22 -73 -5 -12 3 -15 41 -15 46 0 47 1
42 28 -3 15 -14 47 -25 72 l-19 45 -17 -57z"/>
<path d="M4187 3183 c-4 -3 -1 -13 6 -21 6 -9 7 -13 2 -10 -7 4 -11 -3 -11
-17 0 -13 5 -23 11 -22 5 1 9 -3 8 -9 -1 -6 4 -11 11 -11 16 0 19 47 5 75 -13
23 -21 27 -32 15z m30 -60 c0 -9 -4 -10 -14 -2 -7 6 -13 12 -13 14 0 1 6 2 13
2 8 0 14 -6 14 -14z"/>
<path d="M4116 3154 c-10 -27 -7 -79 7 -98 10 -14 12 -7 12 49 0 63 -7 81 -19
49z"/>
<path d="M4260 2816 c0 -2 8 -10 18 -17 15 -13 16 -12 3 4 -13 16 -21 21 -21
13z"/>
<path d="M4206 2788 c3 -5 10 -6 15 -3 13 9 11 12 -6 12 -8 0 -12 -4 -9 -9z"/>
<path d="M3000 3180 c-30 -30 -28 -103 5 -135 50 -51 105 -16 105 65 0 57 -24
90 -65 90 -14 0 -34 -9 -45 -20z"/>
<path d="M3363 3092 c-34 -11 -43 -19 -43 -37 0 -29 23 -48 49 -40 29 9 43 30
39 62 l-3 28 -42 -13z"/>
<path d="M4374 2928 c-13 -20 -13 -38 -1 -35 6 1 11 -3 12 -10 0 -21 12 -23
28 -5 16 17 15 20 -7 41 -19 18 -26 20 -32 9z m35 -45 c-13 -15 -23 -18 -15
-4 3 5 -1 14 -9 21 -8 7 -12 17 -9 22 3 5 14 2 25 -8 14 -13 16 -20 8 -31z"/>
<path d="M4380 2916 c0 -2 8 -10 18 -17 15 -13 16 -12 3 4 -13 16 -21 21 -21
13z"/>
<path d="M4698 2429 c-22 -12 -23 -42 -2 -60 31 -26 70 25 44 56 -14 17 -19
18 -42 4z"/>
<path d="M4663 2204 c-8 -20 13 -34 52 -34 39 0 60 14 52 34 -5 11 -19 16 -52
16 -33 0 -47 -5 -52 -16z"/>
<path d="M5145 2020 c-5 -8 62 -7 69 1 3 2 -11 5 -30 5 -20 0 -37 -3 -39 -6z"/>
<path d="M5107 1964 c-3 -4 -23 -7 -44 -8 -21 -1 -45 -6 -53 -11 -8 -5 -19
-10 -25 -10 -5 0 -14 -10 -21 -22 -6 -13 -14 -20 -17 -16 -4 3 -7 -1 -7 -11 0
-10 5 -14 12 -10 7 5 8 3 2 -7 -17 -27 -12 -36 17 -34 16 1 32 -1 35 -6 3 -5
11 -6 17 -2 17 11 57 12 51 1 -3 -4 -10 -5 -16 -2 -6 4 -8 2 -5 -4 4 -5 15 -9
25 -7 9 1 26 -5 36 -14 16 -13 18 -13 11 -1 -8 13 -7 13 8 1 9 -7 17 -10 17
-6 0 5 10 0 22 -11 13 -12 18 -13 13 -4 -8 13 -7 13 8 1 9 -7 17 -10 17 -6 0
4 7 1 16 -6 17 -14 67 -21 58 -8 -2 4 1 11 7 15 7 4 9 3 5 -4 -10 -17 10 -23
24 -7 7 8 16 13 20 10 10 -6 35 24 35 44 0 9 4 22 9 30 7 11 6 12 -5 6 -11 -7
-12 -6 -3 6 12 17 12 48 0 68 -7 10 -5 12 5 6 11 -6 12 -5 2 5 -7 8 -21 16
-30 18 -32 7 -240 12 -246 6z m-127 -110 c0 -8 -19 -13 -24 -6 -3 5 1 9 9 9 8
0 15 -2 15 -3z"/>
<path d="M5126 1188 c3 -5 10 -6 15 -3 13 9 11 12 -6 12 -8 0 -12 -4 -9 -9z"/>
<path d="M4886 1108 c3 -5 10 -6 15 -3 13 9 11 12 -6 12 -8 0 -12 -4 -9 -9z"/>
<path d="M4823 1085 c0 -8 4 -12 9 -9 5 3 6 10 3 15 -9 13 -12 11 -12 -6z"/>
<path d="M3636 1718 c8 -13 65 -100 70 -107 2 -2 11 2 19 9 14 11 22 8 55 -25
22 -21 42 -37 44 -34 2 2 -5 20 -16 39 -10 19 -17 27 -14 18 8 -25 -7 -22 -34
7 -19 20 -26 22 -38 13 -11 -10 -17 -8 -29 7 -38 51 -38 72 -1 38 16 -15 22
-15 40 -4 19 12 23 11 35 -5 7 -10 13 -22 13 -28 0 -5 3 -7 6 -4 3 4 -2 20
-11 38 -16 31 -17 31 -36 14 -18 -16 -21 -16 -59 10 -44 29 -55 32 -44 14z"/>
<path d="M4478 1347 c-59 -35 -111 -67 -115 -72 -10 -10 -10 -11 119 64 l108
62 40 -21 c22 -11 40 -18 40 -15 0 4 -75 45 -82 45 -2 0 -51 -29 -110 -63z"/>
<path d="M4680 1356 c0 -3 14 -12 30 -21 17 -9 30 -19 30 -24 0 -4 -38 -29
-84 -55 -46 -26 -92 -54 -102 -62 -20 -16 35 12 143 75 35 20 63 39 63 42 0 3
-18 15 -40 28 -22 12 -40 20 -40 17z"/>
<path d="M4246 1212 c-55 -31 -101 -62 -103 -68 -2 -5 14 -18 34 -27 35 -16
28 -6 -13 19 -14 8 -1 19 84 68 87 50 112 66 100 66 -2 0 -48 -26 -102 -58z"/>
<path d="M4463 1144 c-35 -19 -63 -38 -63 -41 0 -5 109 54 125 68 16 16 1 9
-62 -27z"/>
<path d="M4220 1097 c0 -8 70 -47 85 -47 15 0 85 39 85 47 0 3 -16 -4 -36 -16
-19 -12 -41 -21 -49 -21 -8 0 -30 9 -49 21 -20 12 -36 19 -36 16z"/>
<path d="M3560 8625 c19 -10 28 -11 39 -2 12 9 13 9 7 -1 -4 -7 -1 -24 9 -39
9 -14 13 -23 9 -20 -5 2 -18 1 -29 -4 -18 -7 -18 -8 -2 -8 12 -1 16 -5 11 -13
-4 -7 2 -5 14 6 12 10 19 22 17 27 -3 4 -1 10 5 14 5 3 10 -2 10 -13 0 -13 7
-18 22 -17 12 1 24 7 26 14 3 9 8 9 20 -1 13 -11 14 -11 7 1 -6 11 -4 13 7 8
10 -3 18 1 21 11 3 9 8 25 12 35 7 16 -1 18 -111 16 -104 -1 -115 -3 -94 -14z"/>
<path d="M3780 8623 c0 -6 9 -9 20 -6 30 8 32 18 4 18 -13 0 -24 -5 -24 -12z"/>
<path d="M3560 8604 c0 -10 28 -34 41 -34 7 0 2 9 -11 20 -24 21 -30 24 -30
14z"/>
<path d="M4583 8485 c0 -6 6 -12 12 -12 6 0 12 6 12 12 0 6 -6 12 -12 12 -6 0
-12 -6 -12 -12z"/>
<path d="M3308 8373 c7 -3 16 -2 19 1 4 3 -2 6 -13 5 -11 0 -14 -3 -6 -6z"/>
<path d="M3428 8373 c7 -3 16 -2 19 1 4 3 -2 6 -13 5 -11 0 -14 -3 -6 -6z"/>
<path d="M3531 8306 c9 -10 59 -14 54 -5 -4 5 -18 9 -32 9 -15 0 -24 -2 -22
-4z"/>
<path d="M960 8236 c0 -2 7 -7 16 -10 8 -3 12 -2 9 4 -6 10 -25 14 -25 6z"/>
<path d="M4903 8126 c1 -6 -4 -10 -11 -8 -8 1 -11 -2 -7 -8 5 -8 13 -6 26 6
23 21 23 21 5 21 -8 0 -14 -5 -13 -11z"/>
<path d="M4626 8102 c-3 -5 1 -9 9 -9 8 0 12 4 9 9 -3 4 -7 8 -9 8 -2 0 -6 -4
-9 -8z"/>
</g>
</svg>
